<?xml version="1.0" standalone="no"?>
<svg version="1.0" xmlns="http://www.w3.org/2000/svg" width="600.000000pt" height="500.000000pt" viewBox="0 0 1280.000000 1027.000000" preserveAspectRatio="xMidYMid meet">
	<g transform="translate(0.000000,1027.000000) scale(0.100000,-0.100000)"
	fill="#000000" stroke="none">
		<path d="M5260 10217 c-25 -57 -41 -165 -43 -293 -2 -103 -2 -104 -27 -105
-75 -5 -219 15 -285 38 -29 10 -61 12 -118 7 -71 -6 -84 -11 -130 -46 -74 -55
-311 -169 -452 -218 -66 -23 -232 -71 -370 -107 -308 -80 -442 -130 -570 -211
-141 -91 -320 -258 -415 -390 -25 -34 -49 -62 -55 -62 -19 -1 -508 -513 -731
-765 -295 -333 -579 -747 -764 -1115 -63 -124 -139 -303 -133 -313 2 -4 20 6
39 22 96 85 282 129 579 138 202 6 337 -5 481 -42 240 -61 384 -192 384 -350
l0 -44 203 99 c511 248 987 374 1347 356 126 -6 265 -31 334 -60 l37 -15 85
64 c126 96 363 205 522 240 l32 7 0 -114 c2 -955 -1 -2102 -5 -2109 -3 -4 -8
-293 -10 -641 -4 -704 -5 -707 -70 -772 -102 -102 -199 -48 -270 151 -45 124
-61 133 -153 87 l-52 -26 0 -60 c0 -76 22 -162 66 -254 43 -92 108 -152 203
-189 61 -24 79 -27 153 -23 112 7 174 36 254 119 121 127 123 138 126 705 3
508 0 818 -8 853 -5 22 -6 22 -23 7 -10 -9 -19 -16 -22 -16 -3 0 -4 2051 0
2251 l1 67 74 7 c113 10 400 8 506 -5 267 -32 565 -106 815 -205 49 -19 93
-35 97 -35 4 0 17 19 29 42 117 229 696 460 1364 544 200 25 550 26 621 1 47
-16 84 -15 84 2 0 9 -162 165 -258 249 -111 98 -268 299 -542 697 -376 547
-521 735 -716 930 -298 298 -604 460 -954 505 -151 19 -497 2 -494 -25 1 -6 4
-28 8 -50 l6 -40 -22 41 c-21 42 -21 42 -84 46 -47 3 -67 9 -77 22 -15 21 -64
18 -59 -3 2 -10 -35 -12 -195 -9 -109 2 -205 7 -213 11 -12 6 -16 33 -18 125
-5 184 -39 322 -78 322 -8 0 -24 -19 -34 -43z"/>
		<path d="M3851 9819 c-23 -35 -41 -71 -41 -82 0 -43 47 -96 86 -97 11 0 31 12
45 26 31 33 32 110 4 169 -29 59 -47 56 -94 -16z"/>
		<path d="M8907 7243 c-20 -27 -41 -53 -47 -60 -15 -18 10 -83 42 -106 22 -17
33 -19 55 -11 39 13 66 68 58 119 -17 120 -48 136 -108 58z"/>
		<path d="M5781 6778 c-48 -75 -50 -98 -13 -137 38 -42 64 -47 97 -19 26 23 52
106 37 118 -4 3 -14 25 -22 50 -23 70 -49 67 -99 -12z"/>
		<path d="M7693 6698 c-5 -7 -22 -39 -37 -71 -25 -51 -27 -60 -16 -87 16 -40
46 -60 87 -60 26 0 36 6 48 30 21 41 19 81 -9 145 -25 56 -52 71 -73 43z"/>
		<path d="M1224 6345 c-3 -8 1 -22 10 -30 9 -9 16 -25 16 -35 0 -10 5 -22 11
-26 9 -5 10 7 4 42 -4 27 -9 52 -12 57 -7 12 -23 8 -29 -8z"/>
		<path d="M3218 5957 c-8 -7 -27 -40 -41 -74 -31 -69 -27 -96 19 -132 51 -40
94 -22 113 46 9 31 6 45 -18 98 -30 65 -50 81 -73 62z"/>
		<path d="M4600 5772 c0 -4 -16 -32 -36 -62 -27 -43 -34 -62 -29 -85 13 -68 90
-100 131 -54 24 27 25 117 1 172 -12 29 -22 37 -41 37 -15 0 -26 -4 -26 -8z"/>
		<path d="M6756 5671 c-44 -72 -46 -103 -7 -142 43 -43 91 -38 116 12 18 34 19
61 4 108 -24 74 -28 81 -52 81 -19 0 -33 -14 -61 -59z"/>
		<path d="M8146 5466 c-37 -82 -38 -93 -21 -125 29 -57 90 -69 124 -25 29 36
27 88 -6 151 -20 41 -31 53 -50 53 -19 0 -28 -11 -47 -54z"/>
		<path d="M1537 5113 c-3 -15 -22 -55 -43 -88 -42 -69 -48 -124 -18 -174 36
-61 97 -62 129 -1 23 45 19 180 -6 164 -5 -3 -6 2 -3 10 3 8 -8 37 -24 66 -29
50 -29 51 -35 23z"/>
		<path d="M2220 4879 c-22 -34 -40 -72 -40 -84 0 -35 52 -85 89 -85 25 0 36 7
51 33 24 38 24 75 2 142 -25 75 -50 74 -102 -6z"/>
		<path d="M2915 4810 c-3 -6 2 -13 12 -17 10 -3 26 -15 35 -27 17 -21 18 -21
17 -1 0 40 -47 73 -64 45z"/>
		<path d="M3561 4630 c0 -8 4 -24 9 -35 5 -13 9 -14 9 -5 0 8 -4 24 -9 35 -5
13 -9 14 -9 5z"/>
		<path d="M7642 4554 c-49 -75 -50 -98 -2 -145 33 -34 62 -37 89 -10 27 27 47
96 34 113 -6 7 -14 28 -18 46 -7 34 -29 62 -48 62 -7 0 -31 -30 -55 -66z"/>
		<path d="M3591 4535 c0 -5 6 -21 14 -35 8 -14 14 -20 14 -15 0 6 -6 21 -14 35
-8 14 -14 21 -14 15z"/>
		<path d="M3526 4515 c-9 -26 -7 -32 5 -12 6 10 9 21 6 23 -2 3 -7 -2 -11 -11z"/>
		<path d="M3506 4465 c-9 -26 -7 -32 5 -12 6 10 9 21 6 23 -2 3 -7 -2 -11 -11z"/>
		<path d="M3563 4465 c-3 -9 2 -23 10 -33 8 -9 19 -29 22 -44 11 -42 25 -34 18
10 -12 74 -35 105 -50 67z"/>
		<path d="M3620 4465 c0 -5 5 -17 10 -25 5 -8 10 -10 10 -5 0 6 -5 17 -10 25
-5 8 -10 11 -10 5z"/>
		<path d="M3493 4375 c0 -33 2 -45 4 -27 2 18 2 45 0 60 -2 15 -4 0 -4 -33z"/>
		<path d="M3643 4350 c0 -30 2 -43 4 -27 2 15 2 39 0 55 -2 15 -4 2 -4 -28z"/>
		<path d="M3500 4297 c-1 -33 50 -88 82 -87 7 1 0 6 -16 13 -15 7 -36 28 -47
47 -10 19 -18 31 -19 27z"/>
		<path d="M3627 4271 c-4 -17 -3 -21 5 -13 5 5 8 16 6 23 -3 8 -7 3 -11 -10z"/>
		<path d="M8697 4199 c-10 -39 -32 -103 -49 -143 -54 -118 -44 -255 24 -332 37
-42 70 -44 108 -6 66 66 66 208 2 367 -23 55 -44 119 -48 143 -4 23 -10 42
-13 42 -4 0 -15 -32 -24 -71z m33 -9 c0 -10 19 -63 41 -117 37 -88 42 -107 42
-183 0 -97 -17 -149 -58 -176 -25 -16 -27 -16 -53 3 -43 31 -66 88 -70 175 -4
71 -1 86 33 169 20 50 39 106 42 125 6 34 23 38 23 4z"/>
		<path d="M8710 4057 c0 -7 9 -18 20 -25 11 -7 20 -19 20 -27 0 -8 5 -15 10
-15 13 0 13 23 -2 55 -11 26 -48 35 -48 12z"/>
		<path d="M1915 3616 c-16 -35 -33 -62 -37 -60 -13 8 12 -59 29 -78 60 -67 133
-27 133 73 0 15 -4 30 -9 33 -4 3 -11 19 -14 35 -3 16 -13 36 -22 45 -30 30
-49 19 -80 -48z"/>
		<path d="M2762 3594 c-34 -57 -39 -71 -31 -93 26 -68 89 -92 128 -49 31 33 35
76 13 144 -16 49 -23 59 -44 62 -21 3 -31 -7 -66 -64z"/>
		<path d="M6353 3576 c-43 -75 -46 -90 -28 -125 17 -35 43 -51 79 -51 53 0 86
77 60 139 -47 111 -65 117 -111 37z"/>
		<path d="M3941 3464 c0 -11 3 -14 6 -6 3 7 2 16 -1 19 -3 4 -6 -2 -5 -13z"/>
		<path d="M3923 3343 c-20 -7 -15 -40 6 -46 10 -2 24 -15 31 -28 l11 -24 -19
24 c-11 13 -27 22 -38 19 -26 -5 -33 -98 -9 -134 36 -55 85 -13 85 74 0 76
-30 128 -67 115z"/>
		<path d="M3851 3214 c0 -11 3 -14 6 -6 3 7 2 16 -1 19 -3 4 -6 -2 -5 -13z"/>
		<path d="M7464 3138 c-5 -7 -18 -41 -30 -76 l-21 -63 21 -32 c53 -79 147 -52
146 41 -1 39 -61 136 -87 140 -12 2 -25 -3 -29 -10z"/>
		<path d="M5196 3041 c-44 -71 -45 -99 -7 -140 47 -51 110 -33 127 35 7 26 -9
111 -28 147 -19 36 -53 20 -92 -42z"/>
		<path d="M3948 3053 c7 -3 16 -2 19 1 4 3 -2 6 -13 5 -11 0 -14 -3 -6 -6z"/>
		<path d="M6118 2694 c-4 -3 3 -15 14 -26 11 -11 22 -17 26 -14 3 4 -3 16 -14
27 -11 11 -23 17 -26 13z"/>
		<path d="M2181 2584 c-7 -20 -26 -57 -42 -82 -40 -63 -44 -93 -21 -146 51
-115 156 -73 157 64 0 54 -29 135 -67 183 -13 17 -15 15 -27 -19z"/>
		<path d="M8900 2596 c0 -8 5 -18 10 -21 6 -3 10 -15 10 -26 0 -10 5 -19 10
-19 13 0 13 21 0 54 -10 28 -30 35 -30 12z"/>
		<path d="M4172 2514 c-8 -15 -5 -25 9 -43 10 -13 19 -34 19 -47 0 -13 5 -24
11 -24 16 0 2 101 -16 119 -11 11 -15 10 -23 -5z"/>
		<path d="M6734 2459 c-3 -6 -2 -14 4 -18 6 -4 15 -18 21 -31 l10 -25 0 27 c2
48 -18 74 -35 47z"/>
		<path d="M9460 2244 c0 -14 4 -23 10 -19 6 3 10 15 10 26 0 10 -4 19 -10 19
-5 0 -10 -12 -10 -26z"/>
		<path d="M8320 2205 c0 -9 42 -47 47 -42 9 9 -17 47 -32 47 -8 0 -15 -2 -15
-5z"/>
		<path d="M7223 2169 c0 -29 1 -30 14 -13 14 20 13 36 -3 41 -6 2 -11 -11 -11
-28z"/>
		<path d="M8382 2100 c0 -19 2 -27 5 -17 2 9 2 25 0 35 -3 9 -5 1 -5 -18z"/>
		<path d="M6167 1973 c-13 -13 -7 -51 17 -95 l24 -45 -242 -12 c-807 -40 -1638
-124 -2556 -256 -169 -24 -279 -35 -362 -35 l-118 0 5 28 c6 25 5 24 -9 -5
l-15 -33 -108 0 c-123 0 -605 -25 -798 -40 -522 -44 -779 -104 -884 -209 -21
-21 -57 -77 -79 -125 -54 -112 -81 -148 -156 -201 -129 -91 -316 -164 -643
-249 -188 -49 -228 -66 -238 -96 -22 -70 128 -130 495 -196 724 -130 1834
-168 2625 -89 360 36 729 105 929 175 65 22 136 26 184 9 44 -15 33 -31 -91
-127 -149 -115 -182 -161 -161 -221 45 -127 590 -173 1646 -137 337 11 761 16
1445 16 532 0 1069 5 1193 10 450 20 686 52 801 110 45 23 62 43 62 75 0 25 0
25 86 25 47 -1 223 -5 391 -10 414 -13 1402 -13 1586 0 434 30 664 102 664
206 0 13 3 24 8 24 173 4 595 23 672 30 197 20 272 44 257 82 -31 82 -969 212
-2037 282 -484 32 -617 37 -1100 42 -634 6 -692 12 -325 35 627 39 942 66
1198 100 323 43 477 93 477 157 0 39 -86 91 -226 135 -44 14 -96 35 -115 46
-36 21 -130 52 -212 71 -124 27 -858 143 -865 136 -2 -3 18 -8 45 -12 26 -4
43 -9 37 -11 -6 -2 -75 8 -155 22 -167 31 -260 45 -533 85 -109 16 -201 32
-205 35 -3 4 -14 25 -23 48 -12 30 -17 36 -17 20 -1 -12 4 -25 9 -28 13 -8 13
-35 1 -35 -5 0 -12 8 -14 18 -4 16 -5 16 -6 0 -1 -22 11 -22 -184 2 -337 41
-703 73 -957 85 -69 3 -144 8 -167 11 l-43 5 15 29 c28 54 11 120 -30 120 -44
0 -117 -59 -140 -114 l-12 -29 -438 1 -438 1 -33 50 c-48 71 -111 110 -137 84z
m80 -37 c21 -19 46 -48 55 -64 l18 -30 -46 -4 c-44 -3 -48 -1 -70 32 -13 19
-26 50 -30 68 -6 28 -4 32 15 32 11 0 38 -15 58 -34z m1141 22 c17 -17 15 -54
-4 -94 -20 -41 -32 -44 -26 -6 2 19 -3 33 -17 46 -18 16 -21 17 -21 3 0 -9 5
-19 10 -22 6 -3 10 -18 10 -32 0 -25 -1 -26 -51 -20 -29 4 -54 8 -56 11 -7 7
24 60 49 82 47 43 84 54 106 32z m2402 -412 c36 -8 56 -14 45 -14 -11 -1 -49
5 -85 12 -36 8 -56 14 -45 14 11 1 49 -5 85 -12z m113 -23 c-7 -2 -21 -2 -30
0 -10 3 -4 5 12 5 17 0 24 -2 18 -5z m92 -13 c27 -7 27 -8 5 -8 -14 0 -38 4
-55 8 -27 7 -27 8 -5 8 14 0 39 -4 55 -8z m68 -17 c-7 -2 -19 -2 -25 0 -7 3
-2 5 12 5 14 0 19 -2 13 -5z m50 -10 c-7 -2 -19 -2 -25 0 -7 3 -2 5 12 5 14 0
19 -2 13 -5z m54 -9 c-3 -3 -12 -4 -19 -1 -8 3 -5 6 6 6 11 1 17 -2 13 -5z
m60 -10 c-3 -3 -12 -4 -19 -1 -8 3 -5 6 6 6 11 1 17 -2 13 -5z m-6288 -119
c145 -37 262 -45 486 -33 324 17 404 6 434 -56 13 -28 12 -31 -16 -56 -32 -29
-176 -80 -293 -104 -226 -46 -424 -46 -600 1 -99 26 -119 27 -360 30 -156 2
-265 7 -282 14 -17 7 -31 23 -39 46 -10 31 -9 37 12 59 33 35 77 61 145 85
158 56 333 61 513 14z m1631 -735 c85 -27 257 -39 542 -40 289 0 427 -18 415
-53 -6 -21 -109 -76 -154 -83 -35 -5 -73 1 -177 30 -252 69 -349 70 -761 11
-290 -42 -404 -44 -452 -9 -15 12 -28 27 -28 35 0 32 196 106 342 129 82 13
197 5 273 -20z"/>
		<path d="M6207 1913 c-16 -15 -5 -30 23 -30 32 0 37 6 18 25 -13 13 -31 16
-41 5z"/>
		<path d="M9421 1714 c0 -11 3 -14 6 -6 3 7 2 16 -1 19 -3 4 -6 -2 -5 -13z"/>
		<path d="M2989 1661 c-27 -26 -49 -54 -49 -62 0 -8 8 0 19 16 10 17 28 39 40
49 22 20 26 15 22 -26 -3 -24 6 -23 19 1 7 15 6 23 -5 35 -14 14 -13 16 10 22
14 3 29 4 32 0 14 -14 -29 -77 -77 -115 -29 -23 -48 -41 -43 -41 16 0 104 82
119 112 37 72 -19 78 -87 9z"/>
		<path d="M9340 1701 c0 -6 5 -13 10 -16 6 -3 10 -19 10 -36 0 -16 5 -29 10
-29 13 0 13 46 0 71 -11 20 -30 26 -30 10z"/>
		<path d="M1817 1613 c-3 -5 6 -16 19 -26 18 -13 24 -15 24 -4 0 24 -33 47 -43
30z"/>
		<path d="M1882 1500 c0 -14 2 -19 5 -12 2 6 2 18 0 25 -3 6 -5 1 -5 -13z"/>
	</g>
</svg>